<svg xmlns="http://www.w3.org/2000/svg" viewBox="0 0 24 24" width="24" height="24" fill="none" stroke="#f0a500" stroke-width="1.5" stroke-linecap="round" stroke-linejoin="round">
  <!-- Left branch -->
  <path d="M5 20c0-4 1-8 7-12" />
  <path d="M4 16c1.5-1 3.5-1.5 5-0.5" />
  <path d="M3.5 12.5c1.5-0.5 3.5-0.5 4.5 0.5" />
  <path d="M4 9c1.5 0 3 0.5 3.5 1.5" />
  <path d="M5.5 6c1 0.5 2 1.5 2 2.5" />
  <!-- Right branch -->
  <path d="M19 20c0-4-1-8-7-12" />
  <path d="M20 16c-1.5-1-3.5-1.5-5-0.5" />
  <path d="M20.5 12.5c-1.5-0.5-3.5-0.5-4.5 0.5" />
  <path d="M20 9c-1.5 0-3 0.5-3.5 1.5" />
  <path d="M18.5 6c-1 0.5-2 1.5-2 2.5" />
  <!-- Star -->
  <path d="M12 4l0.7 1.5 1.6 0.2-1.2 1.1 0.3 1.6L12 7.5l-1.4 0.8 0.3-1.6-1.2-1.1 1.6-0.2z" fill="#f0a500" stroke="none" />
</svg>
